# Blender 4.0.0
# www.blender.org
mtllib Table.mtl
o Cube.020
v 0.919396 1.061199 1.645001
v 0.919396 1.061199 -1.645001
v 0.919396 1.032610 1.645001
v 0.919396 1.032610 -1.645001
v 1.011592 1.061199 1.604267
v 0.970857 1.061199 1.645001
v 1.010204 1.061199 1.614809
v 1.006134 1.061199 1.624634
v 0.999661 1.061199 1.633070
v 0.991225 1.061199 1.639543
v 0.981400 1.061199 1.643613
v 0.970857 1.061199 -1.645001
v 1.011592 1.061199 -1.604267
v 0.981400 1.061199 -1.643613
v 0.991225 1.061199 -1.639543
v 0.999661 1.061199 -1.633070
v 1.006134 1.061199 -1.624634
v 1.010204 1.061199 -1.614809
v 0.970857 1.032610 1.645001
v 1.011592 1.032610 1.604267
v 0.981400 1.032610 1.643613
v 0.991225 1.032610 1.639543
v 0.999661 1.032610 1.633070
v 1.006134 1.032610 1.624634
v 1.010204 1.032610 1.614809
v 1.011592 1.032610 -1.604267
v 0.970857 1.032610 -1.645001
v 1.010204 1.032610 -1.614809
v 1.006134 1.032610 -1.624634
v 0.999661 1.032610 -1.633070
v 0.991225 1.032610 -1.639543
v 0.981400 1.032610 -1.643613
v -0.915292 1.061199 1.645001
v -0.915292 1.032610 1.645001
v -0.915292 1.061199 -1.645001
v -0.915292 1.032610 -1.645001
v -0.966753 1.061199 1.645001
v -1.007487 1.061199 1.604267
v -0.977296 1.061199 1.643613
v -0.987120 1.061199 1.639543
v -0.995556 1.061199 1.633070
v -1.002030 1.061199 1.624634
v -1.006099 1.061199 1.614809
v -1.007487 1.032610 1.604267
v -0.966753 1.032610 1.645001
v -1.006099 1.032610 1.614809
v -1.002030 1.032610 1.624634
v -0.995556 1.032610 1.633070
v -0.987120 1.032610 1.639543
v -0.977296 1.032610 1.643613
v -1.007487 1.061199 -1.604267
v -0.966753 1.061199 -1.645001
v -1.006099 1.061199 -1.614809
v -1.002030 1.061199 -1.624634
v -0.995556 1.061199 -1.633070
v -0.987120 1.061199 -1.639543
v -0.977296 1.061199 -1.643613
v -0.966753 1.032610 -1.645001
v -1.007487 1.032610 -1.604267
v -0.977296 1.032610 -1.643613
v -0.987120 1.032610 -1.639543
v -0.995556 1.032610 -1.633070
v -1.002030 1.032610 -1.624634
v -1.006099 1.032610 -1.614809
v -0.906072 1.061199 1.645001
v -0.906072 1.061199 -1.645001
v -0.906072 1.032610 1.645001
v -0.813877 1.061199 1.645001
v -0.813877 1.061199 -1.645001
v -0.813877 1.032610 1.645001
v -0.813877 1.032610 -1.645001
v -0.906072 1.032610 -1.645001
v -0.804657 1.061199 1.645001
v -0.804657 1.061199 -1.645001
v -0.804657 1.032610 1.645001
v -0.712462 1.061199 1.645001
v -0.712462 1.061199 -1.645001
v -0.712462 1.032610 1.645001
v -0.712462 1.032610 -1.645001
v -0.804657 1.032610 -1.645001
v -0.703242 1.061199 1.645001
v -0.703242 1.061199 -1.645001
v -0.703242 1.032610 1.645001
v -0.611047 1.061199 1.645001
v -0.611047 1.061199 -1.645001
v -0.611047 1.032610 1.645001
v -0.611047 1.032610 -1.645001
v -0.703242 1.032610 -1.645001
v -0.601828 1.061199 1.645001
v -0.601828 1.061199 -1.645001
v -0.601828 1.032610 1.645001
v -0.509632 1.061199 1.645001
v -0.509632 1.061199 -1.645001
v -0.509632 1.032610 1.645001
v -0.509632 1.032610 -1.645001
v -0.601828 1.032610 -1.645001
v -0.500413 1.061199 1.645001
v -0.500413 1.061199 -1.645001
v -0.500413 1.032610 1.645001
v -0.408217 1.061199 1.645001
v -0.408217 1.061199 -1.645001
v -0.408217 1.032610 1.645001
v -0.408217 1.032610 -1.645001
v -0.500413 1.032610 -1.645001
v -0.398998 1.061199 1.645001
v -0.398998 1.061199 -1.645001
v -0.398998 1.032610 1.645001
v -0.306802 1.061199 1.645001
v -0.306802 1.061199 -1.645001
v -0.306802 1.032610 1.645001
v -0.306802 1.032610 -1.645001
v -0.398998 1.032610 -1.645001
v -0.297583 1.061199 1.645001
v -0.297583 1.061199 -1.645001
v -0.297583 1.032610 1.645001
v -0.205388 1.061199 1.645001
v -0.205388 1.061199 -1.645001
v -0.205388 1.032610 1.645001
v -0.205388 1.032610 -1.645001
v -0.297583 1.032610 -1.645001
v -0.196168 1.061199 1.645001
v -0.196168 1.061199 -1.645001
v -0.196168 1.032610 1.645001
v -0.103973 1.061199 1.645001
v -0.103973 1.061199 -1.645001
v -0.103973 1.032610 1.645001
v -0.103973 1.032610 -1.645001
v -0.196168 1.032610 -1.645001
v -0.094753 1.061199 1.645001
v -0.094753 1.061199 -1.645001
v -0.094753 1.032610 1.645001
v -0.002558 1.061199 1.645001
v -0.002558 1.061199 -1.645001
v -0.002558 1.032610 1.645001
v -0.002558 1.032610 -1.645001
v -0.094753 1.032610 -1.645001
v 0.006662 1.061199 1.645001
v 0.006662 1.061199 -1.645001
v 0.006662 1.032610 1.645001
v 0.098857 1.061199 1.645001
v 0.098857 1.061199 -1.645001
v 0.098857 1.032610 1.645001
v 0.098857 1.032610 -1.645001
v 0.006662 1.032610 -1.645001
v 0.108077 1.061199 1.645001
v 0.108077 1.061199 -1.645001
v 0.108077 1.032610 1.645001
v 0.200272 1.061199 1.645001
v 0.200272 1.061199 -1.645001
v 0.200272 1.032610 1.645001
v 0.200272 1.032610 -1.645001
v 0.108077 1.032610 -1.645001
v 0.209492 1.061199 1.645001
v 0.209492 1.061199 -1.645001
v 0.209492 1.032610 1.645001
v 0.301687 1.061199 1.645001
v 0.301687 1.061199 -1.645001
v 0.301687 1.032610 1.645001
v 0.301687 1.032610 -1.645001
v 0.209492 1.032610 -1.645001
v 0.310907 1.061199 1.645001
v 0.310907 1.061199 -1.645001
v 0.310907 1.032610 1.645001
v 0.403102 1.061199 1.645001
v 0.403102 1.061199 -1.645001
v 0.403102 1.032610 1.645001
v 0.403102 1.032610 -1.645001
v 0.310907 1.032610 -1.645001
v 0.412322 1.061199 1.645001
v 0.412322 1.061199 -1.645001
v 0.412322 1.032610 1.645001
v 0.504517 1.061199 1.645001
v 0.504517 1.061199 -1.645001
v 0.504517 1.032610 1.645001
v 0.504517 1.032610 -1.645001
v 0.412322 1.032610 -1.645001
v 0.513736 1.061199 1.645001
v 0.513736 1.061199 -1.645001
v 0.513736 1.032610 1.645001
v 0.605932 1.061199 1.645001
v 0.605932 1.061199 -1.645001
v 0.605932 1.032610 1.645001
v 0.605932 1.032610 -1.645001
v 0.513736 1.032610 -1.645001
v 0.615152 1.061199 1.645001
v 0.615152 1.061199 -1.645001
v 0.615152 1.032610 1.645001
v 0.707347 1.061199 1.645001
v 0.707347 1.061199 -1.645001
v 0.707347 1.032610 1.645001
v 0.707347 1.032610 -1.645001
v 0.615152 1.032610 -1.645001
v 0.716566 1.061199 1.645001
v 0.716566 1.061199 -1.645001
v 0.716566 1.032610 1.645001
v 0.808762 1.061199 1.645001
v 0.808762 1.061199 -1.645001
v 0.808762 1.032610 1.645001
v 0.808762 1.032610 -1.645001
v 0.716566 1.032610 -1.645001
v 0.817981 1.061199 1.645001
v 0.817981 1.061199 -1.645001
v 0.817981 1.032610 1.645001
v 0.910177 1.061199 1.645001
v 0.910177 1.061199 -1.645001
v 0.910177 1.032610 1.645001
v 0.910177 1.032610 -1.645001
v 0.817981 1.032610 -1.645001
v 1.000000 0.040087 1.049942
v 1.000000 0.040087 1.116000
v -1.000000 0.040087 1.049942
v -1.000000 0.040087 1.116000
v 0.962290 0.001670 1.049942
v -0.962290 0.001670 1.049942
v 0.962290 0.040087 1.116000
v -0.962290 0.040087 1.116000
v -0.962290 0.001670 1.116000
v 0.962290 0.001670 1.116000
v -0.962290 0.040087 1.049942
v 0.962290 0.040087 1.049942
v -0.962290 1.032965 1.116000
v -1.000000 1.032965 1.116000
v 1.000000 1.032965 1.049942
v 1.000000 1.032965 1.116000
v -1.000000 1.032965 1.049942
v 0.962290 1.032965 1.049942
v 0.962290 1.032965 1.116000
v -0.962290 1.032965 1.049942
v 1.000000 0.033413 1.049942
v 0.968257 0.001670 1.049942
v 0.998918 0.025197 1.049942
v 0.995747 0.017541 1.049942
v 0.990703 0.010967 1.049942
v 0.984128 0.005922 1.049942
v 0.976472 0.002751 1.049942
v 0.968257 0.001670 1.116000
v 1.000000 0.033413 1.116000
v 0.976472 0.002751 1.116000
v 0.984128 0.005922 1.116000
v 0.990703 0.010967 1.116000
v 0.995747 0.017541 1.116000
v 0.998918 0.025197 1.116000
v -0.968257 0.001670 1.049942
v -1.000000 0.033413 1.049942
v -0.976472 0.002751 1.049942
v -0.984128 0.005922 1.049942
v -0.990703 0.010967 1.049942
v -0.995747 0.017541 1.049942
v -0.998918 0.025197 1.049942
v -1.000000 0.033413 1.116000
v -0.968257 0.001670 1.116000
v -0.998918 0.025197 1.116000
v -0.995747 0.017541 1.116000
v -0.990703 0.010967 1.116000
v -0.984128 0.005922 1.116000
v -0.976472 0.002751 1.116000
v -1.000000 0.925655 1.116000
v -1.000000 0.925655 1.049942
v -0.962290 0.925655 1.049942
v -0.962290 0.925655 1.116000
v 0.962290 0.925655 1.116000
v 0.962290 0.925655 1.049942
v 1.000000 0.925655 1.049942
v 1.000000 0.925655 1.116000
v -0.962290 0.925655 1.637611
v -0.962290 0.925655 1.603016
v -0.962290 1.032965 1.603016
v 1.000000 0.925655 1.603016
v 0.962290 0.925655 1.603016
v 0.962290 1.032965 1.603016
v -1.000000 1.032965 1.603016
v -0.962290 1.032965 1.637611
v -0.998715 1.032965 1.611970
v -0.994948 1.032965 1.620314
v -0.988955 1.032965 1.627478
v -0.981145 1.032965 1.632976
v -0.972050 1.032965 1.636432
v 0.962290 1.032965 1.637611
v 1.000000 1.032965 1.603016
v 0.972050 1.032965 1.636432
v 0.981145 1.032965 1.632976
v 0.988955 1.032965 1.627478
v 0.994948 1.032965 1.620314
v 0.998715 1.032965 1.611970
v -1.000000 0.925655 1.603016
v -0.972050 0.925655 1.636432
v -0.981145 0.925655 1.632976
v -0.988955 0.925655 1.627478
v -0.994948 0.925655 1.620314
v -0.998715 0.925655 1.611970
v 0.962290 0.925655 1.637611
v 0.998715 0.925655 1.611970
v 0.994948 0.925655 1.620314
v 0.988955 0.925655 1.627478
v 0.981145 0.925655 1.632976
v 0.972050 0.925655 1.636432
v 0.962290 1.032965 0.000000
v 1.000000 1.032965 0.000000
v -1.000000 1.032965 0.000000
v -0.962290 1.032965 0.000000
v 1.000000 0.925655 0.000000
v -1.000000 0.925655 0.000000
v -0.962290 0.925655 0.000000
v 0.962290 0.925655 0.000000
v 1.000000 0.040087 -1.049942
v 1.000000 0.040087 -1.116000
v -1.000000 0.040087 -1.049942
v -1.000000 0.040087 -1.116000
v 0.962290 0.001670 -1.049942
v -0.962290 0.001670 -1.049942
v 0.962290 0.040087 -1.116000
v -0.962290 0.040087 -1.116000
v -0.962290 0.001670 -1.116000
v 0.962290 0.001670 -1.116000
v -0.962290 0.040087 -1.049942
v 0.962290 0.040087 -1.049942
v -0.962290 1.032965 -1.116000
v -1.000000 1.032965 -1.116000
v 1.000000 1.032965 -1.049942
v 1.000000 1.032965 -1.116000
v -1.000000 1.032965 -1.049942
v 0.962290 1.032965 -1.049942
v 0.962290 1.032965 -1.116000
v -0.962290 1.032965 -1.049942
v 1.000000 0.033413 -1.049942
v 0.968257 0.001670 -1.049942
v 0.998918 0.025197 -1.049942
v 0.995747 0.017541 -1.049942
v 0.990703 0.010967 -1.049942
v 0.984128 0.005922 -1.049942
v 0.976472 0.002751 -1.049942
v 0.968257 0.001670 -1.116000
v 1.000000 0.033413 -1.116000
v 0.976472 0.002751 -1.116000
v 0.984128 0.005922 -1.116000
v 0.990703 0.010967 -1.116000
v 0.995747 0.017541 -1.116000
v 0.998918 0.025197 -1.116000
v -0.968257 0.001670 -1.049942
v -1.000000 0.033413 -1.049942
v -0.976472 0.002751 -1.049942
v -0.984128 0.005922 -1.049942
v -0.990703 0.010967 -1.049942
v -0.995747 0.017541 -1.049942
v -0.998918 0.025197 -1.049942
v -1.000000 0.033413 -1.116000
v -0.968257 0.001670 -1.116000
v -0.998918 0.025197 -1.116000
v -0.995747 0.017541 -1.116000
v -0.990703 0.010967 -1.116000
v -0.984128 0.005922 -1.116000
v -0.976472 0.002751 -1.116000
v -1.000000 0.925655 -1.116000
v -1.000000 0.925655 -1.049942
v -0.962290 0.925655 -1.049942
v -0.962290 0.925655 -1.116000
v 0.962290 0.925655 -1.116000
v 0.962290 0.925655 -1.049942
v 1.000000 0.925655 -1.049942
v 1.000000 0.925655 -1.116000
v -0.962290 0.925655 -1.637611
v -0.962290 0.925655 -1.603016
v -0.962290 1.032965 -1.603016
v 1.000000 0.925655 -1.603016
v 0.962290 0.925655 -1.603016
v 0.962290 1.032965 -1.603016
v -1.000000 1.032965 -1.603016
v -0.962290 1.032965 -1.637611
v -0.998715 1.032965 -1.611970
v -0.994948 1.032965 -1.620314
v -0.988955 1.032965 -1.627478
v -0.981145 1.032965 -1.632976
v -0.972050 1.032965 -1.636432
v 0.962290 1.032965 -1.637611
v 1.000000 1.032965 -1.603016
v 0.972050 1.032965 -1.636432
v 0.981145 1.032965 -1.632976
v 0.988955 1.032965 -1.627478
v 0.994948 1.032965 -1.620314
v 0.998715 1.032965 -1.611970
v -1.000000 0.925655 -1.603016
v -0.972050 0.925655 -1.636432
v -0.981145 0.925655 -1.632976
v -0.988955 0.925655 -1.627478
v -0.994948 0.925655 -1.620314
v -0.998715 0.925655 -1.611970
v 0.962290 0.925655 -1.637611
v 0.998715 0.925655 -1.611970
v 0.994948 0.925655 -1.620314
v 0.988955 0.925655 -1.627478
v 0.981145 0.925655 -1.632976
v 0.972050 0.925655 -1.636432
vn 0.9979 -0.0000 -0.0654
vn 0.9979 -0.0000 0.0654
vn -1.0000 -0.0000 -0.0000
vn -0.0000 1.0000 -0.0000
vn -0.0000 -0.0000 -1.0000
vn 0.0654 -0.0000 -0.9979
vn -0.0000 -1.0000 -0.0000
vn 0.0654 -0.0000 0.9979
vn 0.2588 -0.0000 0.9659
vn 0.5000 -0.0000 0.8660
vn 0.7071 -0.0000 0.7071
vn 0.8660 -0.0000 0.5000
vn 0.9659 -0.0000 0.2588
vn 0.9659 -0.0000 -0.2588
vn 0.8660 -0.0000 -0.5000
vn 0.7071 -0.0000 -0.7071
vn 0.5000 -0.0000 -0.8660
vn 0.2588 -0.0000 -0.9659
vn -0.0000 -0.0000 1.0000
vn -0.0654 -0.0000 0.9979
vn 1.0000 -0.0000 -0.0000
vn -0.9979 -0.0000 0.0654
vn -0.9979 -0.0000 -0.0654
vn -0.0654 -0.0000 -0.9979
vn -0.2588 -0.0000 0.9659
vn -0.5000 -0.0000 0.8660
vn -0.7071 -0.0000 0.7071
vn -0.8660 -0.0000 0.5000
vn -0.9659 -0.0000 0.2588
vn -0.2588 -0.0000 -0.9659
vn -0.5000 -0.0000 -0.8660
vn -0.7071 -0.0000 -0.7071
vn -0.8660 -0.0000 -0.5000
vn -0.9659 -0.0000 -0.2588
vn 0.0654 -0.9979 -0.0000
vn 0.9979 -0.0654 -0.0000
vn -0.9979 -0.0654 -0.0000
vn -0.0654 -0.9979 -0.0000
vn -0.2588 -0.9659 -0.0000
vn -0.5000 -0.8660 -0.0000
vn -0.7071 -0.7071 -0.0000
vn -0.8660 -0.5000 -0.0000
vn -0.9659 -0.2588 -0.0000
vn 0.2588 -0.9659 -0.0000
vn 0.5000 -0.8660 -0.0000
vn 0.7071 -0.7071 -0.0000
vn 0.8660 -0.5000 -0.0000
vn 0.9659 -0.2588 -0.0000
vn -0.9975 -0.0000 0.0712
vn 0.9975 -0.0000 0.0712
vn 0.0601 -0.0000 0.9982
vn -0.0601 -0.0000 0.9982
vn -0.2393 -0.0000 0.9709
vn -0.4691 -0.0000 0.8832
vn -0.6771 -0.0000 0.7359
vn -0.8471 -0.0000 0.5315
vn -0.9601 -0.0000 0.2795
vn 0.2393 -0.0000 0.9709
vn 0.4691 -0.0000 0.8832
vn 0.6771 -0.0000 0.7359
vn 0.8471 -0.0000 0.5315
vn 0.9601 -0.0000 0.2795
vn -0.9975 -0.0000 -0.0712
vn 0.9975 -0.0000 -0.0712
vn 0.0601 -0.0000 -0.9982
vn -0.0601 -0.0000 -0.9982
vn -0.2393 -0.0000 -0.9709
vn -0.4691 -0.0000 -0.8832
vn -0.6771 -0.0000 -0.7359
vn -0.8471 -0.0000 -0.5315
vn -0.9601 -0.0000 -0.2795
vn 0.2393 -0.0000 -0.9709
vn 0.4691 -0.0000 -0.8832
vn 0.6771 -0.0000 -0.7359
vn 0.8471 -0.0000 -0.5315
vn 0.9601 -0.0000 -0.2795
vt 3.708533 0.528590
vt -2.708533 0.528590
vt -2.708533 0.471410
vt 3.708533 0.471410
vt -2.790001 0.528590
vt 3.790001 0.528590
vt 3.790001 0.471410
vt -2.790001 0.471410
vt 2.334688 3.790001
vt 2.334688 -2.790001
vt 2.437611 -2.790001
vt 2.458696 -2.787225
vt 2.478345 -2.779086
vt 2.495217 -2.766140
vt 2.508164 -2.749267
vt 2.516303 -2.729618
vt 2.519079 -2.708533
vt 2.519079 3.708533
vt 2.516303 3.729618
vt 2.508164 3.749267
vt 2.495217 3.766140
vt 2.478345 3.779086
vt 2.458696 3.787225
vt 2.437611 3.790001
vt 2.334688 0.528590
vt 2.437611 0.528590
vt 2.437611 0.471410
vt 2.334688 0.471410
vt 2.458696 0.471410
vt 2.458696 0.528590
vt 2.478345 0.471410
vt 2.478345 0.528590
vt 2.495217 0.471410
vt 2.495217 0.528590
vt -2.766140 0.471410
vt -2.749267 0.471410
vt -2.749267 0.528590
vt -2.766140 0.528590
vt -2.729618 0.471410
vt -2.729618 0.528590
vt 3.729618 0.471410
vt 3.729618 0.528590
vt 3.749267 0.471410
vt 3.749267 0.528590
vt 3.766140 0.471410
vt 3.766140 0.528590
vt -1.334688 0.528590
vt -1.437611 0.528590
vt -1.437611 0.471410
vt -1.334688 0.471410
vt -1.334688 3.790001
vt -1.334688 -2.790001
vt -1.437611 -2.790001
vt -1.458696 -2.787225
vt -1.478345 -2.779086
vt -1.495217 -2.766140
vt -1.508164 -2.749267
vt -1.516303 -2.729618
vt -1.519079 -2.708533
vt -1.519079 3.708533
vt -1.516303 3.729618
vt -1.508164 3.749267
vt -1.495217 3.766140
vt -1.478345 3.779086
vt -1.458696 3.787225
vt -1.437611 3.790001
vt -1.458696 0.528590
vt -1.458696 0.471410
vt -1.478345 0.528590
vt -1.478345 0.471410
vt -1.495217 0.528590
vt -1.495217 0.471410
vt -1.316249 3.790001
vt -1.316249 -2.790001
vt -1.131858 -2.790001
vt -1.131858 3.790001
vt -1.131858 0.528590
vt -1.316249 0.528590
vt -1.316249 0.471410
vt -1.131858 0.471410
vt -1.113419 3.790001
vt -1.113419 -2.790001
vt -0.929029 -2.790001
vt -0.929029 3.790001
vt -0.929029 0.528590
vt -1.113419 0.528590
vt -1.113419 0.471410
vt -0.929029 0.471410
vt -0.910589 3.790001
vt -0.910589 -2.790001
vt -0.726199 -2.790001
vt -0.726199 3.790001
vt -0.726199 0.528590
vt -0.910589 0.528590
vt -0.910589 0.471410
vt -0.726199 0.471410
vt -0.707760 3.790001
vt -0.707760 -2.790001
vt -0.523369 -2.790001
vt -0.523369 3.790001
vt -0.523369 0.528590
vt -0.707760 0.528590
vt -0.707760 0.471410
vt -0.523369 0.471410
vt -0.504930 3.790001
vt -0.504930 -2.790001
vt -0.320539 -2.790001
vt -0.320539 3.790001
vt -0.320539 0.528590
vt -0.504930 0.528590
vt -0.504930 0.471410
vt -0.320539 0.471410
vt -0.302100 3.790001
vt -0.302100 -2.790001
vt -0.117709 -2.790001
vt -0.117709 3.790001
vt -0.117709 0.528590
vt -0.302100 0.528590
vt -0.302100 0.471410
vt -0.117709 0.471410
vt -0.099270 3.790001
vt -0.099270 -2.790001
vt 0.085121 -2.790001
vt 0.085121 3.790001
vt 0.085121 0.528590
vt -0.099270 0.528590
vt -0.099270 0.471410
vt 0.085121 0.471410
vt 0.103560 3.790001
vt 0.103560 -2.790001
vt 0.287950 -2.790001
vt 0.287950 3.790001
vt 0.287950 0.528590
vt 0.103560 0.528590
vt 0.103560 0.471410
vt 0.287950 0.471410
vt 0.306390 3.790001
vt 0.306390 -2.790001
vt 0.490780 -2.790001
vt 0.490780 3.790001
vt 0.490780 0.528590
vt 0.306390 0.528590
vt 0.306390 0.471410
vt 0.490780 0.471410
vt 0.509220 3.790001
vt 0.509220 -2.790001
vt 0.693610 -2.790001
vt 0.693610 3.790001
vt 0.693610 0.528590
vt 0.509220 0.528590
vt 0.509220 0.471410
vt 0.693610 0.471410
vt 0.712049 3.790001
vt 0.712049 -2.790001
vt 0.896440 -2.790001
vt 0.896440 3.790001
vt 0.896440 0.528590
vt 0.712049 0.528590
vt 0.712049 0.471410
vt 0.896440 0.471410
vt 0.914879 3.790001
vt 0.914879 -2.790001
vt 1.099270 -2.790001
vt 1.099270 3.790001
vt 1.099270 0.528590
vt 0.914879 0.528590
vt 0.914879 0.471410
vt 1.099270 0.471410
vt 1.117709 3.790001
vt 1.117709 -2.790001
vt 1.302100 -2.790001
vt 1.302100 3.790001
vt 1.302100 0.528590
vt 1.117709 0.528590
vt 1.117709 0.471410
vt 1.302100 0.471410
vt 1.320539 3.790001
vt 1.320539 -2.790001
vt 1.504930 -2.790001
vt 1.504930 3.790001
vt 1.504930 0.528590
vt 1.320539 0.528590
vt 1.320539 0.471410
vt 1.504930 0.471410
vt 1.523369 3.790001
vt 1.523369 -2.790001
vt 1.707759 -2.790001
vt 1.707759 3.790001
vt 1.707759 0.528590
vt 1.523369 0.528590
vt 1.523369 0.471410
vt 1.707759 0.471410
vt 1.726199 3.790001
vt 1.726199 -2.790001
vt 1.910589 -2.790001
vt 1.910589 3.790001
vt 1.910589 0.528590
vt 1.726199 0.528590
vt 1.726199 0.471410
vt 1.910589 0.471410
vt 1.929029 3.790001
vt 1.929029 -2.790001
vt 2.113419 -2.790001
vt 2.113419 3.790001
vt 2.113419 0.528590
vt 1.929029 0.528590
vt 1.929029 0.471410
vt 2.113419 0.471410
vt 2.131858 3.790001
vt 2.131858 -2.790001
vt 2.316249 -2.790001
vt 2.316249 3.790001
vt 2.316249 0.528590
vt 2.131858 0.528590
vt 2.131858 0.471410
vt 2.316249 0.471410
vt 0.630335 0.497132
vt 0.645878 0.497132
vt 0.645878 0.471882
vt 0.630335 0.471882
vt 0.771698 0.462068
vt 0.780737 0.462068
vt 0.780737 0.470941
vt 0.779167 0.470941
vt 0.777234 0.470687
vt 0.775432 0.469941
vt 0.773885 0.468754
vt 0.772698 0.467207
vt 0.771952 0.465405
vt 0.771698 0.463472
vt 0.771698 0.007822
vt 0.771952 0.005889
vt 0.772699 0.004087
vt 0.773885 0.002541
vt 0.775432 0.001354
vt 0.777234 0.000607
vt 0.779167 0.000353
vt 0.780737 0.000353
vt 0.780737 0.009226
vt 0.771698 0.009226
vt 0.159885 0.664824
vt 0.158481 0.664824
vt 0.158481 0.680367
vt 0.159885 0.680367
vt 0.152494 0.503517
vt 0.152494 0.505088
vt 0.136951 0.505088
vt 0.136951 0.503517
vt 0.645878 0.707071
vt 0.645878 0.705501
vt 0.630335 0.705501
vt 0.630335 0.707071
vt 0.470913 0.227643
vt 0.470913 0.218604
vt 0.018071 0.218604
vt 0.018071 0.227643
vt 0.472317 0.227643
vt 0.474250 0.227389
vt 0.476051 0.226643
vt 0.477598 0.225456
vt 0.478785 0.223909
vt 0.479531 0.222108
vt 0.479786 0.220174
vt 0.479786 0.218604
vt 0.612727 0.664824
vt 0.612727 0.680367
vt 0.614131 0.664824
vt 0.614131 0.680367
vt 0.624579 0.764896
vt 0.640122 0.764896
vt 0.640122 0.739647
vt 0.624579 0.739647
vt 0.147445 0.766001
vt 0.600287 0.766001
vt 0.600287 0.781543
vt 0.147445 0.781543
vt 0.632718 0.009226
vt 0.632718 0.000353
vt 0.648261 0.000353
vt 0.648261 0.009226
vt 0.632718 0.470941
vt 0.632718 0.462068
vt 0.648261 0.462068
vt 0.648261 0.470941
vt 0.984485 0.975855
vt 0.993358 0.975855
vt 0.993358 0.728809
vt 0.984485 0.728809
vt 0.136951 0.713457
vt 0.152494 0.713457
vt 0.152494 0.738706
vt 0.136951 0.738706
vt 0.131196 0.974370
vt 0.146738 0.974370
vt 0.146738 0.999619
vt 0.131196 0.999619
vt 0.762853 0.470941
vt 0.762853 0.462068
vt 0.770993 0.462068
vt 0.770716 0.464365
vt 0.769903 0.466505
vt 0.768609 0.468342
vt 0.766923 0.469752
vt 0.764960 0.470639
vt 0.385673 0.470941
vt 0.385673 0.462068
vt 0.162073 0.612827
vt 0.153200 0.612827
vt 0.153503 0.614934
vt 0.154389 0.616897
vt 0.155799 0.618583
vt 0.157637 0.619877
vt 0.159777 0.620690
vt 0.162073 0.620967
vt 0.616064 0.680367
vt 0.616064 0.664824
vt 0.617866 0.680367
vt 0.617866 0.664824
vt 0.619413 0.680367
vt 0.619413 0.664824
vt 0.630335 0.712352
vt 0.645878 0.712352
vt 0.645878 0.710805
vt 0.630335 0.710805
vt 0.645878 0.709004
vt 0.630335 0.709004
vt 0.156548 0.664824
vt 0.156548 0.680367
vt 0.154747 0.664824
vt 0.154747 0.680367
vt 0.153200 0.664824
vt 0.153200 0.680367
vt 0.136951 0.498236
vt 0.152494 0.498236
vt 0.152494 0.499783
vt 0.136951 0.499783
vt 0.152494 0.501584
vt 0.136951 0.501584
vt 0.009198 0.218604
vt 0.009198 0.220174
vt 0.009452 0.222108
vt 0.010198 0.223909
vt 0.011385 0.225456
vt 0.012932 0.226643
vt 0.014734 0.227389
vt 0.016667 0.227643
vt 0.989106 0.462068
vt 0.989106 0.470941
vt 0.131196 0.766001
vt 0.146738 0.766001
vt 0.479786 0.010235
vt 0.470913 0.010235
vt 0.018071 0.010235
vt 0.009198 0.010235
vt 0.989106 0.000353
vt 0.989106 0.009226
vt 0.624579 0.973265
vt 0.640122 0.973265
vt 0.623788 0.612827
vt 0.614915 0.612827
vt 0.614915 0.620967
vt 0.617212 0.620690
vt 0.619352 0.619877
vt 0.621190 0.618583
vt 0.622600 0.616897
vt 0.623486 0.614934
vt 0.762853 0.009226
vt 0.762853 0.000353
vt 0.764960 0.000655
vt 0.766923 0.001542
vt 0.768609 0.002952
vt 0.769903 0.004789
vt 0.770716 0.006929
vt 0.770993 0.009226
vt 0.958529 0.934607
vt 0.983779 0.934607
vt 0.983779 0.481765
vt 0.958529 0.481765
vt 0.760470 0.497132
vt 0.760470 0.471882
vt 0.016603 0.999619
vt 0.016603 0.974370
vt 0.623788 0.498235
vt 0.614915 0.498235
vt 0.754714 0.764896
vt 0.754714 0.739647
vt 0.022359 0.738706
vt 0.022359 0.713457
vt 0.162073 0.498235
vt 0.153200 0.498235
vt 0.931868 0.940880
vt 0.906619 0.940880
vt 0.906619 0.488038
vt 0.931868 0.488038
vt 0.906619 0.485741
vt 0.931868 0.485741
vt 0.906619 0.483601
vt 0.931868 0.483601
vt 0.906619 0.481764
vt 0.931868 0.481764
vt 0.766226 0.497132
vt 0.766226 0.471882
vt 0.764540 0.471882
vt 0.764540 0.497132
vt 0.762576 0.471882
vt 0.762576 0.497132
vt 0.931868 0.943176
vt 0.906619 0.943176
vt 0.931868 0.945316
vt 0.906619 0.945316
vt 0.931868 0.947154
vt 0.906619 0.947154
vt 0.016603 0.738706
vt 0.016603 0.713457
vt 0.018289 0.713457
vt 0.018289 0.738706
vt 0.020252 0.713457
vt 0.020252 0.738706
vt 0.044026 0.019108
vt 0.044026 0.010235
vt 0.018776 0.010235
vt 0.018776 0.019108
vt 0.069981 0.019108
vt 0.069981 0.010235
vt 0.044732 0.010235
vt 0.044732 0.019108
vt 0.383289 0.471882
vt 0.383289 0.497132
vt 0.503287 0.455814
vt 0.503287 0.446941
vt 0.256242 0.446941
vt 0.256242 0.455814
vt 0.399539 0.713457
vt 0.399539 0.738706
vt 0.393784 0.974370
vt 0.393784 0.999619
vt 0.377534 0.739647
vt 0.377534 0.764896
vt 0.385673 0.009226
vt 0.385673 0.000353
vt 0.136244 0.497132
vt 0.136244 0.471882
vt 0.120701 0.471882
vt 0.120701 0.497132
vt 0.998851 0.019108
vt 0.998851 0.017704
vt 0.998596 0.015771
vt 0.997850 0.013970
vt 0.996663 0.012423
vt 0.995116 0.011236
vt 0.993315 0.010490
vt 0.991382 0.010235
vt 0.989811 0.010235
vt 0.989811 0.019108
vt 0.998851 0.473355
vt 0.998851 0.471951
vt 0.989811 0.471951
vt 0.989811 0.480824
vt 0.991382 0.480824
vt 0.993315 0.480569
vt 0.995116 0.479823
vt 0.996663 0.478636
vt 0.997850 0.477089
vt 0.998596 0.475288
vt 0.159885 0.663896
vt 0.159885 0.648353
vt 0.158481 0.648353
vt 0.158481 0.663896
vt 0.646584 0.503517
vt 0.662127 0.503517
vt 0.662127 0.505088
vt 0.646584 0.505088
vt 0.120701 0.707071
vt 0.136244 0.707071
vt 0.136244 0.705501
vt 0.120701 0.705501
vt 0.470913 0.445996
vt 0.018071 0.445996
vt 0.018071 0.436957
vt 0.470913 0.436957
vt 0.472317 0.445996
vt 0.479786 0.436957
vt 0.479786 0.438527
vt 0.479531 0.440461
vt 0.478785 0.442262
vt 0.477598 0.443809
vt 0.476051 0.444996
vt 0.474250 0.445742
vt 0.612727 0.663896
vt 0.612727 0.648353
vt 0.614131 0.663896
vt 0.614131 0.648353
vt 0.130489 0.764896
vt 0.130489 0.739647
vt 0.114946 0.739647
vt 0.114946 0.764896
vt 0.153200 0.696837
vt 0.153200 0.681294
vt 0.606043 0.681294
vt 0.606043 0.696837
vt 0.138628 0.009226
vt 0.123085 0.009226
vt 0.123085 0.000353
vt 0.138628 0.000353
vt 0.138628 0.470941
vt 0.123085 0.470941
vt 0.123085 0.462068
vt 0.138628 0.462068
vt 0.984485 0.481764
vt 0.993358 0.481764
vt 0.662127 0.713457
vt 0.662127 0.738706
vt 0.646584 0.738706
vt 0.646584 0.713457
vt 0.656372 0.974370
vt 0.656372 0.999619
vt 0.640829 0.999619
vt 0.640829 0.974370
vt 0.008493 0.470941
vt 0.006386 0.470639
vt 0.004423 0.469752
vt 0.002737 0.468342
vt 0.001443 0.466505
vt 0.000630 0.464365
vt 0.000353 0.462068
vt 0.008493 0.462068
vt 0.791321 0.943480
vt 0.783181 0.943480
vt 0.783458 0.945776
vt 0.784272 0.947916
vt 0.785565 0.949754
vt 0.787251 0.951164
vt 0.789214 0.952051
vt 0.791321 0.952353
vt 0.616064 0.663896
vt 0.616064 0.648353
vt 0.617866 0.663896
vt 0.617866 0.648353
vt 0.619413 0.663896
vt 0.619413 0.648353
vt 0.136244 0.712352
vt 0.136244 0.710805
vt 0.120701 0.710805
vt 0.120701 0.712352
vt 0.136244 0.709004
vt 0.120701 0.709004
vt 0.156548 0.648353
vt 0.156548 0.663896
vt 0.154747 0.648353
vt 0.154747 0.663896
vt 0.153200 0.648353
vt 0.153200 0.663896
vt 0.662127 0.498236
vt 0.662127 0.499783
vt 0.646584 0.499783
vt 0.646584 0.498236
vt 0.662127 0.501584
vt 0.646584 0.501584
vt 0.016667 0.445996
vt 0.014734 0.445742
vt 0.012932 0.444996
vt 0.011385 0.443809
vt 0.010198 0.442262
vt 0.009452 0.440460
vt 0.009198 0.438527
vt 0.009198 0.436957
vt 0.781442 0.010235
vt 0.781442 0.019108
vt 0.656372 0.766001
vt 0.640829 0.766001
vt 0.470913 0.228588
vt 0.479786 0.228588
vt 0.009198 0.228588
vt 0.018071 0.228588
vt 0.781442 0.471951
vt 0.781442 0.480824
vt 0.130489 0.973265
vt 0.114946 0.973265
vt 0.791321 0.481765
vt 0.789214 0.482067
vt 0.787251 0.482953
vt 0.785565 0.484364
vt 0.784272 0.486201
vt 0.783458 0.488341
vt 0.783181 0.490638
vt 0.791321 0.490638
vt 0.008493 0.009226
vt 0.000353 0.009226
vt 0.000630 0.006929
vt 0.001443 0.004789
vt 0.002737 0.002952
vt 0.004423 0.001542
vt 0.006386 0.000655
vt 0.008493 0.000353
vt 0.153200 0.622000
vt 0.606043 0.622000
vt 0.606043 0.647249
vt 0.153200 0.647249
vt 0.006109 0.471882
vt 0.006109 0.497132
vt 0.770964 0.974370
vt 0.770964 0.999619
vt 0.905913 0.481765
vt 0.905913 0.490638
vt 0.000354 0.739647
vt 0.000354 0.764896
vt 0.776719 0.713457
vt 0.776719 0.738706
vt 0.905913 0.943480
vt 0.905913 0.952353
vt 0.957824 0.940880
vt 0.957824 0.488038
vt 0.932574 0.488038
vt 0.932574 0.940880
vt 0.957824 0.485741
vt 0.932574 0.485741
vt 0.957824 0.483601
vt 0.932574 0.483601
vt 0.957824 0.481764
vt 0.932574 0.481764
vt 0.000353 0.497132
vt 0.002039 0.497132
vt 0.002039 0.471882
vt 0.000353 0.471882
vt 0.004002 0.497132
vt 0.004002 0.471882
vt 0.932574 0.943176
vt 0.957824 0.943176
vt 0.932574 0.945316
vt 0.957824 0.945316
vt 0.932574 0.947154
vt 0.957824 0.947154
vt 0.782475 0.738706
vt 0.780789 0.738706
vt 0.780789 0.713457
vt 0.782475 0.713457
vt 0.778826 0.738706
vt 0.778826 0.713457
vt 0.009197 0.455814
vt 0.009197 0.446941
s 1
usemtl wood
f 13/1/1 5/2/2 20/3/2 26/4/1
f 1/5/3 2/6/3 4/7/3 3/8/3
f 2/9/4 1/10/4 6/11/4 11/12/4 10/13/4 9/14/4 8/15/4 7/16/4 5/17/4 13/18/4 18/19/4 17/20/4 16/21/4 15/22/4 14/23/4 12/24/4
f 2/25/5 12/26/6 27/27/6 4/28/5
f 26/18/7 20/17/7 25/16/7 24/15/7 23/14/7 22/13/7 21/12/7 19/11/7 3/10/7 4/9/7 27/24/7 32/23/7 31/22/7 30/21/7 29/20/7 28/19/7
f 19/27/8 21/29/9 11/30/9 6/26/8
f 21/29/9 22/31/10 10/32/10 11/30/9
f 22/31/10 23/33/11 9/34/11 10/32/10
f 23/35/11 24/36/12 8/37/12 9/38/11
f 24/36/12 25/39/13 7/40/13 8/37/12
f 25/39/13 20/3/2 5/2/2 7/40/13
f 26/4/1 28/41/14 18/42/14 13/1/1
f 28/41/14 29/43/15 17/44/15 18/42/14
f 29/43/15 30/45/16 16/46/16 17/44/15
f 30/33/16 31/31/17 15/32/17 16/34/16
f 31/31/17 32/29/18 14/30/18 15/32/17
f 32/29/18 27/27/6 12/26/6 14/30/18
f 6/26/8 1/25/19 3/28/19 19/27/8
f 33/47/19 37/48/20 45/49/20 34/50/19
f 35/6/21 33/5/21 34/8/21 36/7/21
f 36/51/7 34/52/7 45/53/7 50/54/7 49/55/7 48/56/7 47/57/7 46/58/7 44/59/7 59/60/7 64/61/7 63/62/7 62/63/7 61/64/7 60/65/7 58/66/7
f 38/2/22 51/1/23 59/4/23 44/3/22
f 52/48/24 35/47/5 36/50/5 58/49/24
f 37/48/20 39/67/25 50/68/25 45/49/20
f 39/67/25 40/69/26 49/70/26 50/68/25
f 40/69/26 41/71/27 48/72/27 49/70/26
f 41/38/27 42/37/28 47/36/28 48/35/27
f 42/37/28 43/40/29 46/39/29 47/36/28
f 43/40/29 38/2/22 44/3/22 46/39/29
f 58/49/24 60/68/30 57/67/30 52/48/24
f 60/68/30 61/70/31 56/69/31 57/67/30
f 61/70/31 62/72/32 55/71/32 56/69/31
f 62/45/32 63/43/33 54/44/33 55/46/32
f 63/43/33 64/41/34 53/42/34 54/44/33
f 64/41/34 59/4/23 51/1/23 53/42/34
f 51/60/4 38/59/4 43/58/4 42/57/4 41/56/4 40/55/4 39/54/4 37/53/4 33/52/4 35/51/4 52/66/4 57/65/4 56/64/4 55/63/4 54/62/4 53/61/4
f 66/73/4 65/74/4 68/75/4 69/76/4
f 65/5/3 66/6/3 72/7/3 67/8/3
f 68/77/19 65/78/19 67/79/19 70/80/19
f 69/6/21 68/5/21 70/8/21 71/7/21
f 71/76/7 70/75/7 67/74/7 72/73/7
f 66/78/5 69/77/5 71/80/5 72/79/5
f 74/81/4 73/82/4 76/83/4 77/84/4
f 73/5/3 74/6/3 80/7/3 75/8/3
f 76/85/19 73/86/19 75/87/19 78/88/19
f 77/6/21 76/5/21 78/8/21 79/7/21
f 79/84/7 78/83/7 75/82/7 80/81/7
f 74/86/5 77/85/5 79/88/5 80/87/5
f 82/89/4 81/90/4 84/91/4 85/92/4
f 81/5/3 82/6/3 88/7/3 83/8/3
f 84/93/19 81/94/19 83/95/19 86/96/19
f 85/6/21 84/5/21 86/8/21 87/7/21
f 87/92/7 86/91/7 83/90/7 88/89/7
f 82/94/5 85/93/5 87/96/5 88/95/5
f 90/97/4 89/98/4 92/99/4 93/100/4
f 89/5/3 90/6/3 96/7/3 91/8/3
f 92/101/19 89/102/19 91/103/19 94/104/19
f 93/6/21 92/5/21 94/8/21 95/7/21
f 95/100/7 94/99/7 91/98/7 96/97/7
f 90/102/5 93/101/5 95/104/5 96/103/5
f 98/105/4 97/106/4 100/107/4 101/108/4
f 97/5/3 98/6/3 104/7/3 99/8/3
f 100/109/19 97/110/19 99/111/19 102/112/19
f 101/6/21 100/5/21 102/8/21 103/7/21
f 103/108/7 102/107/7 99/106/7 104/105/7
f 98/110/5 101/109/5 103/112/5 104/111/5
f 106/113/4 105/114/4 108/115/4 109/116/4
f 105/5/3 106/6/3 112/7/3 107/8/3
f 108/117/19 105/118/19 107/119/19 110/120/19
f 109/6/21 108/5/21 110/8/21 111/7/21
f 111/116/7 110/115/7 107/114/7 112/113/7
f 106/118/5 109/117/5 111/120/5 112/119/5
f 114/121/4 113/122/4 116/123/4 117/124/4
f 113/5/3 114/6/3 120/7/3 115/8/3
f 116/125/19 113/126/19 115/127/19 118/128/19
f 117/6/21 116/5/21 118/8/21 119/7/21
f 119/124/7 118/123/7 115/122/7 120/121/7
f 114/126/5 117/125/5 119/128/5 120/127/5
f 122/129/4 121/130/4 124/131/4 125/132/4
f 121/5/3 122/6/3 128/7/3 123/8/3
f 124/133/19 121/134/19 123/135/19 126/136/19
f 125/6/21 124/5/21 126/8/21 127/7/21
f 127/132/7 126/131/7 123/130/7 128/129/7
f 122/134/5 125/133/5 127/136/5 128/135/5
f 130/137/4 129/138/4 132/139/4 133/140/4
f 129/5/3 130/6/3 136/7/3 131/8/3
f 132/141/19 129/142/19 131/143/19 134/144/19
f 133/6/21 132/5/21 134/8/21 135/7/21
f 135/140/7 134/139/7 131/138/7 136/137/7
f 130/142/5 133/141/5 135/144/5 136/143/5
f 138/145/4 137/146/4 140/147/4 141/148/4
f 137/5/3 138/6/3 144/7/3 139/8/3
f 140/149/19 137/150/19 139/151/19 142/152/19
f 141/6/21 140/5/21 142/8/21 143/7/21
f 143/148/7 142/147/7 139/146/7 144/145/7
f 138/150/5 141/149/5 143/152/5 144/151/5
f 146/153/4 145/154/4 148/155/4 149/156/4
f 145/5/3 146/6/3 152/7/3 147/8/3
f 148/157/19 145/158/19 147/159/19 150/160/19
f 149/6/21 148/5/21 150/8/21 151/7/21
f 151/156/7 150/155/7 147/154/7 152/153/7
f 146/158/5 149/157/5 151/160/5 152/159/5
f 154/161/4 153/162/4 156/163/4 157/164/4
f 153/5/3 154/6/3 160/7/3 155/8/3
f 156/165/19 153/166/19 155/167/19 158/168/19
f 157/6/21 156/5/21 158/8/21 159/7/21
f 159/164/7 158/163/7 155/162/7 160/161/7
f 154/166/5 157/165/5 159/168/5 160/167/5
f 162/169/4 161/170/4 164/171/4 165/172/4
f 161/5/3 162/6/3 168/7/3 163/8/3
f 164/173/19 161/174/19 163/175/19 166/176/19
f 165/6/21 164/5/21 166/8/21 167/7/21
f 167/172/7 166/171/7 163/170/7 168/169/7
f 162/174/5 165/173/5 167/176/5 168/175/5
f 170/177/4 169/178/4 172/179/4 173/180/4
f 169/5/3 170/6/3 176/7/3 171/8/3
f 172/181/19 169/182/19 171/183/19 174/184/19
f 173/6/21 172/5/21 174/8/21 175/7/21
f 175/180/7 174/179/7 171/178/7 176/177/7
f 170/182/5 173/181/5 175/184/5 176/183/5
f 178/185/4 177/186/4 180/187/4 181/188/4
f 177/5/3 178/6/3 184/7/3 179/8/3
f 180/189/19 177/190/19 179/191/19 182/192/19
f 181/6/21 180/5/21 182/8/21 183/7/21
f 183/188/7 182/187/7 179/186/7 184/185/7
f 178/190/5 181/189/5 183/192/5 184/191/5
f 186/193/4 185/194/4 188/195/4 189/196/4
f 185/5/3 186/6/3 192/7/3 187/8/3
f 188/197/19 185/198/19 187/199/19 190/200/19
f 189/6/21 188/5/21 190/8/21 191/7/21
f 191/196/7 190/195/7 187/194/7 192/193/7
f 186/198/5 189/197/5 191/200/5 192/199/5
f 194/201/4 193/202/4 196/203/4 197/204/4
f 193/5/3 194/6/3 200/7/3 195/8/3
f 196/205/19 193/206/19 195/207/19 198/208/19
f 197/6/21 196/5/21 198/8/21 199/7/21
f 199/204/7 198/203/7 195/202/7 200/201/7
f 194/206/5 197/205/5 199/208/5 200/207/5
f 202/209/4 201/210/4 204/211/4 205/212/4
f 201/5/3 202/6/3 208/7/3 203/8/3
f 204/213/19 201/214/19 203/215/19 206/216/19
f 205/6/21 204/5/21 206/8/21 207/7/21
f 207/212/7 206/211/7 203/210/7 208/209/7
f 202/214/5 205/213/5 207/216/5 208/215/5
usemtl Metal
f 258/217/3 257/218/3 222/219/3 225/220/3
f 217/221/19 216/222/19 212/223/19 250/224/19 252/225/19 253/226/19 254/227/19 255/228/19 256/229/19 251/230/19
f 236/231/19 238/232/19 239/233/19 240/234/19 241/235/19 242/236/19 237/237/19 210/238/19 215/239/19 218/240/19
f 213/241/7 230/242/35 236/243/35 218/244/7
f 229/245/36 209/246/21 210/247/21 237/248/36
f 250/249/37 212/250/3 211/251/3 244/252/37
f 214/253/5 219/254/5 220/255/5 213/256/5
f 243/257/5 245/258/5 246/259/5 247/260/5 248/261/5 249/262/5 244/263/5 211/264/5 219/254/5 214/253/5
f 214/265/7 213/241/7 218/244/7 217/266/7
f 243/267/38 214/265/7 217/266/7 251/268/38
f 218/240/19 215/239/19 216/222/19 217/221/19
f 262/269/3 261/270/3 227/271/3 226/272/3
f 220/273/4 219/274/4 216/275/4 215/276/4
f 228/277/4 225/278/4 222/279/4 221/280/4
f 223/281/4 226/282/4 227/283/4 224/284/4
f 263/285/7 262/286/7 304/287/7 301/288/7
f 264/289/21 263/290/21 223/291/21 224/292/21
f 260/293/21 259/294/21 228/295/21 221/296/21
f 279/297/4 270/298/4 278/299/4 280/300/4 281/301/4 282/302/4 283/303/4 284/304/4
f 226/282/4 223/281/4 298/305/4 297/306/4
f 269/307/7 268/308/7 292/309/7 293/310/7 294/311/7 295/312/7 296/313/7 291/314/7
f 243/267/38 251/268/38 256/315/39 245/316/39
f 245/316/39 256/315/39 255/317/40 246/318/40
f 246/318/40 255/317/40 254/319/41 247/320/41
f 247/321/41 254/322/41 253/323/42 248/324/42
f 248/324/42 253/323/42 252/325/43 249/326/43
f 249/326/43 252/325/43 250/249/37 244/252/37
f 236/243/35 230/242/35 235/327/44 238/328/44
f 238/328/44 235/327/44 234/329/45 239/330/45
f 239/330/45 234/329/45 233/331/46 240/332/46
f 240/333/46 233/334/46 232/335/47 241/336/47
f 241/336/47 232/335/47 231/337/48 242/338/48
f 242/338/48 231/337/48 229/245/36 237/248/36
f 213/256/5 220/255/5 209/339/5 229/340/5 231/341/5 232/342/5 233/343/5 234/344/5 235/345/5 230/346/5
f 212/223/19 216/222/19 260/347/19 257/348/19
f 216/349/21 219/350/21 259/294/21 260/293/21
f 219/254/5 211/264/5 258/351/5 259/352/5
f 211/251/3 212/250/3 257/218/3 258/217/3
f 209/339/5 220/255/5 262/353/5 263/354/5
f 215/239/19 210/238/19 264/355/19 261/356/19
f 210/247/21 209/246/21 263/290/21 264/289/21
f 220/357/3 215/358/3 261/270/3 262/269/3
f 285/359/7 266/360/7 265/361/7 286/362/7 287/363/7 288/364/7 289/365/7 290/366/7
f 269/307/7 291/314/7 265/361/7 266/360/7
f 267/367/4 271/368/4 273/369/4 274/370/4 275/371/4 276/372/4 277/373/4 272/374/4
f 270/375/5 269/376/5 266/377/5 267/378/5
f 222/219/3 257/218/3 285/379/49 271/380/49
f 260/293/21 221/296/21 267/381/21 266/382/21
f 257/383/7 260/384/7 266/360/7 285/359/7
f 221/280/4 222/279/4 271/368/4 267/367/4
f 224/284/4 227/283/4 270/298/4 279/297/4
f 227/271/3 261/270/3 269/385/3 270/386/3
f 264/289/21 224/292/21 279/387/50 268/388/50
f 261/389/7 264/390/7 268/308/7 269/307/7
f 291/391/51 278/392/51 272/393/52 265/394/52
f 278/299/4 270/298/4 267/367/4 272/374/4
f 265/394/52 272/393/52 277/395/53 286/396/53
f 286/396/53 277/395/53 276/397/54 287/398/54
f 287/398/54 276/397/54 275/399/55 288/400/55
f 288/401/55 275/402/55 274/403/56 289/404/56
f 289/404/56 274/403/56 273/405/57 290/406/57
f 290/406/57 273/405/57 271/380/49 285/379/49
f 278/392/51 291/391/51 296/407/58 280/408/58
f 280/408/58 296/407/58 295/409/59 281/410/59
f 281/410/59 295/409/59 294/411/60 282/412/60
f 282/413/60 294/414/60 293/415/61 283/416/61
f 283/416/61 293/415/61 292/417/62 284/418/62
f 284/418/62 292/417/62 268/388/50 279/387/50
f 303/419/5 302/420/5 299/421/5 300/422/5
f 301/423/5 304/424/5 297/425/5 298/426/5
f 258/217/3 225/220/3 299/427/3 302/428/3
f 259/429/7 258/430/7 302/431/7 303/432/7
f 223/291/21 263/290/21 301/433/21 298/434/21
f 228/295/21 259/294/21 303/435/21 300/436/21
f 262/269/3 226/272/3 297/437/3 304/438/3
f 225/278/4 228/277/4 300/439/4 299/440/4
f 354/441/3 321/442/3 318/443/3 353/444/3
f 313/445/5 347/446/5 352/447/5 351/448/5 350/449/5 349/450/5 348/451/5 346/452/5 308/453/5 312/454/5
f 332/455/5 314/456/5 311/457/5 306/458/5 333/459/5 338/460/5 337/461/5 336/462/5 335/463/5 334/464/5
f 309/465/7 314/466/7 332/467/35 326/468/35
f 325/469/36 333/470/36 306/471/21 305/472/21
f 346/473/37 340/474/37 307/475/3 308/476/3
f 310/477/19 309/478/19 316/479/19 315/480/19
f 339/481/19 310/477/19 315/480/19 307/482/19 340/483/19 345/484/19 344/485/19 343/486/19 342/487/19 341/488/19
f 310/489/7 313/490/7 314/466/7 309/465/7
f 339/491/38 347/492/38 313/490/7 310/489/7
f 314/456/5 313/445/5 312/454/5 311/457/5
f 358/493/3 322/494/3 323/495/3 357/496/3
f 316/497/4 311/498/4 312/499/4 315/500/4
f 324/501/4 317/502/4 318/503/4 321/504/4
f 319/505/4 320/506/4 323/507/4 322/508/4
f 359/509/7 301/288/7 304/287/7 358/510/7
f 360/511/21 320/512/21 319/513/21 359/514/21
f 356/515/21 317/516/21 324/517/21 355/518/21
f 375/519/4 380/520/4 379/521/4 378/522/4 377/523/4 376/524/4 374/525/4 366/526/4
f 322/508/4 297/306/4 298/305/4 319/505/4
f 365/527/7 387/528/7 392/529/7 391/530/7 390/531/7 389/532/7 388/533/7 364/534/7
f 339/491/38 341/535/39 352/536/39 347/492/38
f 341/535/39 342/537/40 351/538/40 352/536/39
f 342/537/40 343/539/41 350/540/41 351/538/40
f 343/541/41 344/542/42 349/543/42 350/544/41
f 344/542/42 345/545/43 348/546/43 349/543/42
f 345/545/43 340/474/37 346/473/37 348/546/43
f 332/467/35 334/547/44 331/548/44 326/468/35
f 334/547/44 335/549/45 330/550/45 331/548/44
f 335/549/45 336/551/46 329/552/46 330/550/45
f 336/553/46 337/554/47 328/555/47 329/556/46
f 337/554/47 338/557/48 327/558/48 328/555/47
f 338/557/48 333/470/36 325/469/36 327/558/48
f 309/478/19 326/559/19 331/560/19 330/561/19 329/562/19 328/563/19 327/564/19 325/565/19 305/566/19 316/479/19
f 308/453/5 353/567/5 356/568/5 312/454/5
f 312/569/21 356/515/21 355/518/21 315/570/21
f 315/480/19 355/571/19 354/572/19 307/482/19
f 307/475/3 354/441/3 353/444/3 308/476/3
f 305/566/19 359/573/19 358/574/19 316/479/19
f 311/457/5 357/575/5 360/576/5 306/458/5
f 306/471/21 360/511/21 359/514/21 305/472/21
f 316/577/3 358/493/3 357/496/3 311/578/3
f 381/579/7 386/580/7 385/581/7 384/582/7 383/583/7 382/584/7 361/585/7 362/586/7
f 365/527/7 362/586/7 361/585/7 387/528/7
f 363/587/4 368/588/4 373/589/4 372/590/4 371/591/4 370/592/4 369/593/4 367/594/4
f 366/595/19 363/596/19 362/597/19 365/598/19
f 318/443/3 367/599/63 381/600/63 353/444/3
f 356/515/21 362/601/21 363/602/21 317/516/21
f 353/603/7 381/579/7 362/586/7 356/604/7
f 317/502/4 363/587/4 367/594/4 318/503/4
f 320/506/4 375/519/4 366/526/4 323/507/4
f 323/495/3 366/605/3 365/606/3 357/496/3
f 360/511/21 364/607/64 375/608/64 320/512/21
f 357/609/7 365/527/7 364/534/7 360/610/7
f 387/611/65 361/612/66 368/613/66 374/614/65
f 374/525/4 368/588/4 363/587/4 366/526/4
f 361/612/66 382/615/67 373/616/67 368/613/66
f 382/615/67 383/617/68 372/618/68 373/616/67
f 383/617/68 384/619/69 371/620/69 372/618/68
f 384/621/69 385/622/70 370/623/70 371/624/69
f 385/622/70 386/625/71 369/626/71 370/623/70
f 386/625/71 381/600/63 367/599/63 369/626/71
f 374/614/65 376/627/72 392/628/72 387/611/65
f 376/627/72 377/629/73 391/630/73 392/628/72
f 377/629/73 378/631/74 390/632/74 391/630/73
f 378/633/74 379/634/75 389/635/75 390/636/74
f 379/634/75 380/637/76 388/638/76 389/635/75
f 380/637/76 375/608/64 364/607/64 388/638/76
f 354/441/3 302/428/3 299/427/3 321/442/3
f 355/639/7 303/432/7 302/431/7 354/640/7
f 319/513/21 298/434/21 301/433/21 359/514/21
f 324/517/21 300/436/21 303/435/21 355/518/21
f 358/493/3 304/438/3 297/437/3 322/494/3
f 321/504/4 299/440/4 300/439/4 324/501/4
